<?xml version="1.0" standalone="no"?>
<!DOCTYPE svg PUBLIC "-//W3C//DTD SVG 20010904//EN"
 "http://www.w3.org/TR/2001/REC-SVG-20010904/DTD/svg10.dtd">
<svg version="1.0" xmlns="http://www.w3.org/2000/svg"
 width="1024.000000pt" height="1024.000000pt" viewBox="0 0 1024.000000 1024.000000"
 preserveAspectRatio="xMidYMid meet">

<g transform="translate(0.000000,1024.000000) scale(0.100000,-0.100000)"
fill="#000000" stroke="none">
<path d="M0 5120 l0 -5120 5120 0 5120 0 0 5120 0 5120 -5120 0 -5120 0 0
-5120z m6954 754 c70 -24 130 -86 150 -153 9 -30 13 -57 10 -60 -3 -3 -40 -11
-82 -16 l-77 -10 -10 30 c-16 46 -67 75 -134 75 -74 0 -117 -26 -127 -75 -13
-69 30 -103 166 -130 200 -40 281 -115 281 -265 0 -57 -4 -79 -26 -119 -51
-92 -151 -141 -291 -142 -99 -1 -170 19 -235 66 -50 36 -99 118 -99 166 0 26
2 27 73 34 39 3 79 8 88 11 12 3 18 -4 23 -29 19 -99 180 -132 264 -55 32 30
31 100 -2 133 -24 24 -41 30 -186 65 -156 37 -231 108 -238 224 -2 35 1 81 8
101 24 74 113 146 201 165 61 13 184 5 243 -16z m-3338 -13 c107 -49 168 -146
167 -266 -1 -79 -18 -127 -64 -180 -66 -75 -154 -105 -309 -105 l-90 0 0 -145
0 -145 -90 0 -90 0 0 430 0 430 218 0 c191 0 222 -3 258 -19z m642 -68 c17
-49 82 -238 146 -422 64 -184 116 -338 116 -343 0 -5 -41 -7 -92 -6 l-91 3
-26 77 c-14 42 -28 79 -31 82 -3 3 -73 6 -155 7 l-150 1 -27 -83 -26 -84 -97
-3 c-76 -2 -96 0 -93 10 3 7 70 201 149 430 l144 418 102 0 101 0 30 -87z
m857 60 c54 -28 119 -100 136 -149 7 -21 13 -68 13 -104 0 -53 -6 -75 -29
-119 -26 -46 -82 -98 -122 -112 -7 -2 25 -71 82 -177 l94 -173 -102 3 -102 3
-75 153 -74 152 -68 0 -68 0 0 -155 0 -155 -90 0 -90 0 0 431 0 430 228 -3
c210 -3 230 -5 267 -25z m495 -403 l0 -431 -92 3 c-51 2 -92 6 -90 11 1 4 2
196 2 427 l0 420 90 0 90 0 0 -430z m342 265 l3 -166 135 165 135 165 113 1
113 0 -23 -29 c-13 -16 -80 -96 -149 -178 l-126 -149 158 -247 c88 -136 159
-249 159 -252 0 -3 -47 -5 -104 -5 l-104 0 -112 184 -111 184 -45 -48 -44 -47
0 -137 0 -136 -90 0 -90 0 0 430 0 430 90 0 90 0 2 -165z m1488 -5 l0 -170
150 0 150 0 0 170 0 170 90 0 90 0 0 -430 0 -430 -90 0 -90 0 0 180 0 180
-150 0 -150 0 0 -180 0 -180 -90 0 -90 0 0 430 0 430 90 0 90 0 0 -170z m832
62 c31 -59 72 -136 91 -170 l34 -64 92 171 92 171 95 0 c52 0 94 -2 94 -5 0
-7 -261 -469 -271 -479 -5 -6 -9 -92 -9 -193 l0 -183 -90 0 -90 0 0 170 0 170
-145 255 c-80 140 -145 257 -145 260 0 3 44 5 98 5 l97 0 57 -108z m1018 -244
c68 -194 135 -388 150 -430 l27 -78 -96 0 -97 0 -28 85 -27 85 -145 0 c-79 0
-147 1 -151 3 -5 1 -21 -37 -38 -85 l-30 -88 -92 0 c-51 0 -93 4 -93 8 0 5 61
184 136 398 75 214 141 404 147 422 l10 32 102 0 102 0 123 -352z m-6044 -932
c15 -12 16 -17 7 -27 -10 -10 -15 -10 -27 0 -22 18 -61 10 -61 -12 0 -12 16
-26 44 -40 53 -26 66 -45 58 -79 -12 -46 -96 -60 -127 -22 -20 24 -1 34 30 16
23 -13 34 -14 47 -6 33 20 27 43 -14 60 -51 21 -73 42 -73 70 0 45 74 70 116
40z m143 -67 l37 -81 31 78 c23 61 35 80 52 82 20 3 21 0 21 -102 0 -86 -3
-106 -15 -106 -11 0 -15 17 -17 73 l-3 72 -28 -72 c-16 -40 -35 -73 -42 -73
-7 0 -25 30 -41 68 -40 97 -46 98 -42 9 3 -66 1 -77 -13 -77 -14 0 -17 15 -18
95 -1 52 1 100 4 105 16 26 39 5 74 -71z m328 -24 c37 -95 39 -105 22 -105
-12 0 -21 10 -25 25 -5 22 -12 25 -50 25 -38 0 -46 -4 -54 -25 -8 -21 -40 -37
-40 -20 0 7 68 184 76 196 15 25 35 -1 71 -96z m195 75 c24 -29 23 -46 -5 -74
l-23 -23 22 -34 c13 -19 23 -40 23 -47 1 -24 -39 7 -56 44 -24 50 -53 46 -53
-6 0 -29 -4 -40 -15 -40 -12 0 -15 18 -15 106 l0 107 52 -5 c38 -4 57 -12 70
-28z m198 15 c0 -10 -10 -15 -30 -15 l-30 0 0 -90 c0 -73 -3 -90 -15 -90 -12
0 -15 17 -15 90 l0 90 -30 0 c-20 0 -30 5 -30 15 0 12 15 15 75 15 60 0 75 -3
75 -15z m170 0 c0 -11 -12 -15 -50 -15 -49 0 -50 -1 -50 -30 0 -28 3 -30 35
-30 24 0 35 -5 35 -15 0 -10 -11 -15 -35 -15 -32 0 -35 -2 -35 -30 0 -29 1
-30 50 -30 38 0 50 -4 50 -15 0 -12 -14 -15 -65 -15 l-65 0 0 105 0 105 65 0
c51 0 65 -3 65 -15z m144 5 c15 -5 31 -21 38 -35 10 -22 8 -30 -11 -56 l-22
-30 21 -36 c11 -19 19 -38 16 -40 -12 -12 -37 9 -53 42 -24 50 -53 48 -53 -5
0 -29 -4 -40 -15 -40 -12 0 -15 18 -15 105 l0 105 34 0 c19 0 46 -4 60 -10z
m296 -15 c44 -40 9 -105 -55 -105 -34 0 -35 -1 -35 -40 0 -29 -4 -40 -15 -40
-12 0 -15 18 -15 106 l0 107 50 -5 c28 -3 59 -13 70 -23z m174 4 c31 -25 33
-55 5 -85 l-21 -22 26 -41 c25 -38 25 -41 7 -41 -13 0 -28 15 -42 40 -14 24
-30 40 -41 40 -14 0 -18 -8 -18 -40 0 -29 -4 -40 -15 -40 -12 0 -15 18 -15
105 l0 105 44 0 c29 0 52 -7 70 -21z m200 6 c4 -12 -4 -15 -44 -15 -49 0 -50
-1 -50 -30 0 -28 3 -30 35 -30 24 0 35 -5 35 -15 0 -10 -11 -15 -35 -15 -32 0
-35 -2 -35 -29 0 -28 2 -30 47 -33 26 -2 48 -9 51 -15 3 -10 -14 -13 -62 -13
l-66 0 0 105 0 105 59 0 c43 0 60 -4 65 -15z m178 -15 c23 -29 23 -41 -3 -74
-15 -19 -30 -26 -55 -26 -33 0 -34 -1 -34 -40 0 -31 -4 -40 -17 -40 -16 0 -18
10 -15 106 l3 106 52 -5 c37 -3 56 -11 69 -27z m175 -75 c37 -95 39 -105 22
-105 -12 0 -21 10 -25 25 -5 22 -12 25 -50 25 -38 0 -46 -4 -54 -25 -5 -14
-17 -25 -26 -25 -9 0 -14 6 -11 13 2 6 19 54 38 105 44 123 54 122 106 -13z
m195 75 c24 -29 23 -46 -4 -73 l-23 -22 24 -44 c22 -40 22 -43 5 -39 -10 2
-28 20 -39 41 -28 51 -55 50 -55 -3 0 -29 -4 -40 -15 -40 -12 0 -15 18 -15
106 l0 107 52 -5 c38 -4 57 -12 70 -28z m188 -52 c17 -46 35 -93 40 -105 8
-19 6 -23 -9 -23 -12 0 -21 9 -25 25 -6 22 -12 25 -51 25 -39 0 -47 -3 -55
-25 -5 -14 -17 -25 -26 -25 -11 0 -14 5 -9 18 4 9 20 52 36 96 16 43 32 83 35
87 15 25 35 2 64 -73z m200 67 c0 -10 -10 -15 -30 -15 l-30 0 0 -90 c0 -73 -3
-90 -15 -90 -12 0 -15 17 -15 90 l0 90 -30 0 c-20 0 -30 5 -30 15 0 12 15 15
75 15 60 0 75 -3 75 -15z m70 -90 c0 -87 -3 -105 -15 -105 -12 0 -15 18 -15
105 0 87 3 105 15 105 12 0 15 -18 15 -105z m211 76 c51 -51 36 -146 -27 -176
-42 -20 -77 -11 -109 27 -58 68 -14 178 70 178 27 0 44 -8 66 -29z m158 -48
l51 -78 0 78 c0 62 3 77 15 77 12 0 15 -18 15 -105 0 -130 -10 -135 -77 -33
l-48 71 -3 -71 c-2 -55 -6 -72 -17 -72 -12 0 -15 20 -15 105 0 82 3 105 14
105 7 0 36 -35 65 -77z m419 61 c23 -16 31 -67 12 -79 -5 -3 -1 -14 10 -25 45
-45 7 -90 -75 -90 l-55 0 0 105 0 105 43 0 c23 0 53 -7 65 -16z m222 1 c0 -11
-12 -15 -50 -15 -49 0 -50 -1 -50 -30 0 -28 3 -30 35 -30 24 0 35 -5 35 -15 0
-10 -11 -15 -35 -15 -32 0 -35 -2 -35 -30 0 -29 1 -30 50 -30 38 0 50 -4 50
-15 0 -12 -14 -15 -65 -15 l-65 0 0 105 0 105 65 0 c51 0 65 -3 65 -15z m187
-2 c3 -7 -9 -13 -29 -15 l-33 -3 1 -87 c0 -78 -2 -88 -18 -88 -16 0 -18 10
-18 90 l0 90 -30 0 c-20 0 -30 5 -30 15 0 13 13 15 77 13 48 -2 78 -7 80 -15z
m178 2 c0 -5 -13 -12 -30 -15 l-30 -5 0 -88 c0 -76 -2 -87 -17 -87 -16 0 -18
11 -18 90 l0 90 -30 0 c-29 0 -38 9 -23 24 11 10 148 2 148 -9z m173 -2 c2 -9
-11 -13 -47 -13 -50 0 -51 -1 -51 -30 0 -28 3 -30 35 -30 24 0 35 -5 35 -15 0
-10 -11 -15 -35 -15 -32 0 -35 -2 -35 -30 0 -29 1 -30 50 -30 38 0 50 -4 50
-15 0 -12 -14 -15 -65 -15 l-65 0 0 105 0 106 62 -3 c38 -2 63 -8 66 -15z
m167 -4 c27 -28 27 -57 2 -83 l-24 -24 25 -41 c22 -38 23 -41 6 -41 -12 0 -28
16 -42 40 -30 53 -52 53 -52 0 0 -29 -4 -40 -15 -40 -12 0 -15 18 -15 106 l0
107 51 -5 c28 -3 56 -11 64 -19z m280 1 c22 -18 19 -77 -5 -92 -19 -12 -19
-13 6 -55 22 -39 23 -43 7 -43 -11 0 -26 16 -38 37 -11 21 -28 39 -37 41 -15
3 -18 -4 -18 -37 0 -34 -3 -41 -20 -41 -19 0 -20 7 -20 98 0 54 3 102 8 106
11 12 99 1 117 -14z m203 3 c2 -9 -11 -13 -47 -13 -50 0 -51 -1 -51 -30 0 -28
3 -30 35 -30 24 0 35 -5 35 -15 0 -10 -11 -15 -35 -15 -32 0 -35 -2 -35 -30 0
-29 1 -30 50 -30 38 0 50 -4 50 -15 0 -12 -14 -15 -65 -15 l-65 0 0 105 0 106
62 -3 c38 -2 63 -8 66 -15z m161 1 c30 -21 10 -36 -29 -21 -15 6 -34 7 -44 4
-30 -12 -17 -37 31 -58 54 -23 63 -33 63 -71 0 -50 -96 -74 -131 -32 -19 23
-1 34 30 17 30 -18 58 -13 67 12 8 19 -13 45 -36 45 -26 0 -70 38 -70 61 0 50
72 76 119 43z m101 -59 c0 -62 4 -79 20 -95 11 -11 27 -20 35 -20 8 0 24 9 35
20 16 16 20 33 20 95 0 60 3 75 15 75 12 0 15 -16 15 -83 0 -74 -3 -86 -22
-104 -43 -39 -92 -38 -131 2 -24 23 -25 185 -2 185 12 0 15 -15 15 -75z m221
-17 l-2 -88 45 0 c34 0 46 -4 46 -15 0 -12 -13 -15 -60 -15 l-60 0 0 106 c0
93 2 105 16 102 15 -3 17 -16 15 -90z m249 77 c0 -10 -10 -15 -30 -15 l-30 0
0 -90 c0 -84 -1 -90 -21 -90 -19 0 -20 5 -18 88 l2 87 -26 3 c-15 2 -27 10
-27 18 0 11 17 14 75 14 60 0 75 -3 75 -15z m149 -1 c16 -12 20 -19 12 -27 -8
-8 -14 -8 -23 1 -25 25 -88 4 -70 -24 4 -6 28 -20 53 -31 48 -22 62 -44 48
-81 -12 -31 -54 -45 -95 -32 -38 13 -51 27 -36 42 7 7 18 4 35 -7 31 -20 67
-12 67 14 0 23 -17 37 -53 46 -28 7 -57 39 -57 62 0 23 39 53 68 53 15 0 38
-7 51 -16z m-2541 -182 c2 -7 -6 -12 -17 -12 -21 0 -27 11 -14 24 9 9 26 2 31
-12z m2642 5 c0 -8 -3 -17 -7 -20 -9 -9 -34 13 -27 24 8 14 34 11 34 -4z"/>
<path d="M3320 5595 l0 -125 85 0 c139 0 200 40 200 132 0 44 -4 53 -37 84
l-38 34 -105 0 -105 0 0 -125z"/>
<path d="M4077 5508 c-26 -83 -45 -153 -43 -155 2 -2 46 -2 98 -1 l95 3 -46
147 c-26 81 -50 150 -52 153 -3 2 -26 -63 -52 -147z"/>
<path d="M4800 5599 l0 -121 103 4 c118 4 149 17 174 75 20 49 9 99 -29 135
-29 27 -33 28 -139 28 l-109 0 0 -121z"/>
<path d="M9042 5595 c-12 -38 -35 -109 -51 -157 l-30 -88 103 0 104 0 -43 133
c-66 203 -59 193 -83 112z"/>
<path d="M3651 4535 c-6 -16 -14 -36 -16 -42 -3 -9 6 -13 25 -13 33 0 34 1 15
50 l-13 35 -11 -30z"/>
<path d="M3820 4546 c0 -33 2 -36 30 -36 55 0 51 62 -4 68 -24 3 -26 0 -26
-32z"/>
<path d="M4360 4544 c0 -34 1 -35 33 -32 25 2 33 8 35 27 4 26 -12 41 -45 41
-20 0 -23 -5 -23 -36z"/>
<path d="M4630 4545 c0 -32 3 -35 28 -35 27 0 52 15 52 31 0 16 -33 39 -56 39
-21 0 -24 -5 -24 -35z"/>
<path d="M4810 4545 c0 -32 2 -35 30 -35 38 0 58 31 34 54 -8 9 -26 16 -40 16
-21 0 -24 -5 -24 -35z"/>
<path d="M5180 4546 c0 -33 2 -36 30 -36 55 0 51 62 -4 68 -24 3 -26 0 -26
-32z"/>
<path d="M5381 4535 c-6 -16 -14 -36 -16 -42 -3 -9 6 -13 25 -13 33 0 34 1 15
50 l-13 35 -11 -30z"/>
<path d="M5550 4546 c0 -33 2 -36 30 -36 55 0 51 62 -4 68 -24 3 -26 0 -26
-32z"/>
<path d="M5781 4559 c-1 -4 -8 -23 -16 -43 l-15 -36 30 0 c18 0 30 5 30 13 -1
13 -28 76 -29 66z"/>
<path d="M6202 4557 c-30 -32 -29 -81 3 -112 13 -14 31 -25 40 -25 29 0 65 46
65 85 0 67 -65 98 -108 52z"/>
<path d="M6810 4550 c0 -27 3 -30 30 -30 34 0 49 22 30 45 -7 8 -23 15 -36 15
-20 0 -24 -5 -24 -30z"/>
<path d="M6810 4459 c0 -29 2 -30 37 -27 65 5 56 57 -9 58 -25 0 -28 -4 -28
-31z"/>
<path d="M7730 4544 c0 -34 1 -35 32 -32 38 4 51 34 22 55 -34 25 -54 17 -54
-23z"/>
<path d="M8010 4544 c0 -32 2 -35 26 -32 38 4 55 35 30 54 -36 26 -56 18 -56
-22z"/>
</g>
</svg>
